<mxfile host="app.diagrams.net" modified="2024-06-24T04:12:59.518Z" agent="Mozilla/5.0 (Windows NT 10.0; Win64; x64) AppleWebKit/537.36 (KHTML, like Gecko) Chrome/126.0.0.0 Safari/537.36" version="24.6.2" etag="LkYD3KslXd_9fLRr97ll" type="github">
  <diagram name="ページ1" id="asHndj8KTmDriEIqwjIS">
    <mxGraphModel>
      <root>
        <mxCell id="0" />
        <mxCell id="1" parent="0" />
      </root>
    </mxGraphModel>
  </diagram>
</mxfile>
